{
  "source": "C:\\Users\\Peter\\Desktop\\stuff\\MIUN\\quantitative_research\\video_compression\\videos\\BVI-HD\\BVI-HD_CDVL_videos\\ORIG\\TreeTrunk_1920x1080_50fps.mp4",
  "output": "C:\\Users\\Peter\\Desktop\\stuff\\MIUN\\quantitative_research\\video_compression\\compressed_videos\\BVI-HD\\av1\\3\\TreeTrunk_1920x1080_50fps_av1.mkv",
  "codec": "av1",
  "ok": "Input #0, mov,mp4,m4a,3gp,3g2,mj2, from 'C:\\Users\\Peter\\Desktop\\stuff\\MIUN\\quantitative_research\\video_compression\\videos\\BVI-HD\\BVI-HD_CDVL_videos\\ORIG\\TreeTrunk_1920x1080_50fps.mp4':\n  Metadata:\n    major_brand     : isom\n    minor_version   : 512\n    compatible_brands: isomiso2avc1mp41\n    encoder         : Lavf54.28.101\n  Duration: 00:00:05.00, start: 0.000000, bitrate: 622415 kb/s\n  Stream #0:0[0x1](und): Video: h264 (High 4:4:4 Predictive) (avc1 / 0x31637661), yuv420p(progressive), 1920x1080, 622410 kb/s, 50 fps, 50 tbr, 50 tbn (default)\n    Metadata:\n      handler_name    : VideoHandler\n      vendor_id       : [0][0][0][0]\n[out#0/matroska @ 0000017f4e63f0c0] Codec AVOption b:a (set bitrate (in bits/s)) has not been used for any stream. The most likely reason is either wrong type (e.g. a video option with no video streams) or that it is a private option of some decoder which was not actually used for any stream.\nStream mapping:\n  Stream #0:0 -> #0:0 (h264 (native) -> av1 (libsvtav1))\nPress [q] to stop, [?] for help\nSvt[info]: -------------------------------------------\nSvt[info]: SVT [version]:\tSVT-AV1 Encoder Lib v3.1.0-19-g6ecfe8ec\nSvt[info]: SVT [build]  :\tGCC 15.2.0\t 64 bit\nSvt[info]: LIB Build date: Aug 17 2025 11:37:13\nSvt[info]: -------------------------------------------\nSvt[info]: Level of Parallelism: 5\nSvt[info]: Number of PPCS 93\nSvt[info]: [asm level on system : up to avx2]\nSvt[info]: [asm level selected : up to avx2]\nSvt[info]: -------------------------------------------\nSvt[info]: SVT [config]: main profile\ttier (auto)\tlevel (auto)\nSvt[info]: SVT [config]: width / height / fps numerator / fps denominator \t\t: 1920 / 1080 / 50 / 1\nSvt[info]: SVT [config]: bit-depth / color format \t\t\t\t\t: 8 / YUV420\nSvt[info]: SVT [config]: preset / tune / pred struct \t\t\t\t\t: 4 / PSNR / random access\nSvt[info]: SVT [config]: gop size / mini-gop size / key-frame type \t\t\t: 321 / 16 / key frame\nSvt[info]: SVT [config]: BRC mode / target bitrate (kbps)\t\t\t\t: VBR / 3000 \nSvt[info]: SVT [config]: AQ mode / Variance Boost \t\t\t\t\t: 2 / 0\nSvt[info]: SVT [config]: sharpness / luminance-based QP bias \t\t\t\t: 0 / 0\nSvt[info]: SVT [config]: QP scale compress strength \t\t\t\t\t: 0\nSvt[info]: -------------------------------------------\nOutput #0, matroska, to 'C:\\Users\\Peter\\Desktop\\stuff\\MIUN\\quantitative_research\\video_compression\\compressed_videos\\BVI-HD\\av1\\3\\TreeTrunk_1920x1080_50fps_av1.mkv':\n  Metadata:\n    major_brand     : isom\n    minor_version   : 512\n    compatible_brands: isomiso2avc1mp41\n    encoder         : Lavf62.3.100\n  Stream #0:0(und): Video: av1 (AV01 / 0x31305641), yuv420p(tv, progressive), 1920x1080, q=2-31, 3000 kb/s, 50 fps, 1k tbn (default)\n    Metadata:\n      encoder         : Lavc62.11.100 libsvtav1\n      handler_name    : VideoHandler\n      vendor_id       : [0][0][0][0]\n    Side data:\n      cpb: bitrate max/min/avg: 0/0/3000000 buffer size: 3000000 vbv_delay: N/A\nframe=    0 fps=0.0 q=0.0 size=       0KiB time=N/A bitrate=N/A speed=N/A elapsed=0:00:01.72    \nframe=    0 fps=0.0 q=0.0 size=       0KiB time=N/A bitrate=N/A speed=N/A elapsed=0:00:02.44    \nframe=    0 fps=0.0 q=0.0 size=       0KiB time=N/A bitrate=N/A speed=N/A elapsed=0:00:03.05    \nframe=    0 fps=0.0 q=0.0 size=       0KiB time=N/A bitrate=N/A speed=N/A elapsed=0:00:03.64    \nframe=    0 fps=0.0 q=0.0 size=       0KiB time=N/A bitrate=N/A speed=N/A elapsed=0:00:04.42    \nframe=    0 fps=0.0 q=0.0 size=       0KiB time=N/A bitrate=N/A speed=N/A elapsed=0:00:05.21    \nframe=    0 fps=0.0 q=0.0 size=       0KiB time=N/A bitrate=N/A speed=N/A elapsed=0:00:05.94    \nframe=    0 fps=0.0 q=0.0 size=       0KiB time=N/A bitrate=N/A speed=N/A elapsed=0:00:06.54    \nframe=    0 fps=0.0 q=0.0 size=       0KiB time=N/A bitrate=N/A speed=N/A elapsed=0:00:07.07    \nframe=    1 fps=0.1 q=18.0 size=       1KiB time=00:00:00.00 bitrate=N/A speed=   0x elapsed=0:00:07.60    \nframe=    1 fps=0.1 q=18.0 size=       1KiB time=00:00:00.00 bitrate=N/A speed=   0x elapsed=0:00:08.18    \nframe=    1 fps=0.1 q=18.0 size=       1KiB time=00:00:00.00 bitrate=N/A speed=   0x elapsed=0:00:08.69    \nframe=    5 fps=0.5 q=44.0 size=       1KiB time=00:00:00.06 bitrate=  95.1kbits/s speed=0.00647x elapsed=0:00:09.27    \nframe=   11 fps=1.1 q=47.0 size=       1KiB time=00:00:00.16 bitrate=  35.6kbits/s speed=0.016x elapsed=0:00:09.98    \nframe=   13 fps=1.2 q=45.0 size=       1KiB time=00:00:00.24 bitrate=  23.8kbits/s speed=0.0224x elapsed=0:00:10.72    \nframe=   14 fps=1.2 q=48.0 size=       1KiB time=00:00:00.26 bitrate=  21.9kbits/s speed=0.0231x elapsed=0:00:11.24    \nframe=   19 fps=1.6 q=45.0 size=       1KiB time=00:00:00.32 bitrate=  17.8kbits/s speed=0.0271x elapsed=0:00:11.79    \nframe=   26 fps=2.1 q=48.0 size=       1KiB time=00:00:00.46 bitrate=  12.4kbits/s speed=0.0369x elapsed=0:00:12.47    \nframe=   29 fps=2.2 q=43.0 size=       1KiB time=00:00:00.56 bitrate=  10.2kbits/s speed=0.0425x elapsed=0:00:13.17    \nframe=   29 fps=2.1 q=43.0 size=       1KiB time=00:00:00.56 bitrate=  10.2kbits/s speed=0.0408x elapsed=0:00:13.73    \nframe=   31 fps=2.2 q=46.0 size=       1KiB time=00:00:00.60 bitrate=   9.5kbits/s speed=0.0421x elapsed=0:00:14.26    \nframe=   38 fps=2.6 q=45.0 size=       1KiB time=00:00:00.72 bitrate=   7.9kbits/s speed=0.0484x elapsed=0:00:14.87    \nframe=   44 fps=2.8 q=46.0 size=       1KiB time=00:00:00.82 bitrate=   7.0kbits/s speed=0.0529x elapsed=0:00:15.48    \nframe=   45 fps=2.8 q=42.0 size=       1KiB time=00:00:00.88 bitrate=   6.5kbits/s speed=0.0539x elapsed=0:00:16.32    \nframe=   46 fps=2.7 q=46.0 size=       1KiB time=00:00:00.90 bitrate=   6.3kbits/s speed=0.0533x elapsed=0:00:16.89    \nframe=   53 fps=3.0 q=40.0 size=       1KiB time=00:00:01.02 bitrate=   5.6kbits/s speed=0.0585x elapsed=0:00:17.45    \nframe=   60 fps=3.3 q=45.0 size=       1KiB time=00:00:01.14 bitrate=   5.0kbits/s speed=0.0631x elapsed=0:00:18.06    \nframe=   61 fps=3.2 q=41.0 size=       1KiB time=00:00:01.20 bitrate=   4.8kbits/s speed=0.0634x elapsed=0:00:18.93    \nframe=   62 fps=3.2 q=45.0 size=       1KiB time=00:00:01.22 bitrate=   4.7kbits/s speed=0.0627x elapsed=0:00:19.46    \nframe=   69 fps=3.4 q=40.0 size=       1KiB time=00:00:01.34 bitrate=   4.3kbits/s speed=0.0669x elapsed=0:00:20.03    \nframe=   75 fps=3.6 q=43.0 size=       1KiB time=00:00:01.46 bitrate=   3.9kbits/s speed=0.0708x elapsed=0:00:20.61    \nframe=   77 fps=3.6 q=40.0 size=       1KiB time=00:00:01.52 bitrate=   3.8kbits/s speed=0.0711x elapsed=0:00:21.38    \nframe=   77 fps=3.5 q=40.0 size=       1KiB time=00:00:01.52 bitrate=   3.8kbits/s speed=0.0692x elapsed=0:00:21.95    \nframe=   82 fps=3.6 q=44.0 size=       1KiB time=00:00:01.62 bitrate=   3.5kbits/s speed=0.0721x elapsed=0:00:22.47    \nframe=   87 fps=3.8 q=44.0 size=       1KiB time=00:00:01.72 bitrate=   3.3kbits/s speed=0.0745x elapsed=0:00:23.08    \nframe=   93 fps=3.9 q=41.0 size=       1KiB time=00:00:01.82 bitrate=   3.1kbits/s speed=0.0767x elapsed=0:00:23.73    \nframe=   93 fps=3.8 q=41.0 size=       1KiB time=00:00:01.84 bitrate=   3.1kbits/s speed=0.0754x elapsed=0:00:24.40    \nframe=   95 fps=3.8 q=44.0 size=       1KiB time=00:00:01.88 bitrate=   3.0kbits/s speed=0.0752x elapsed=0:00:24.99    \nframe=  102 fps=4.0 q=44.0 size=       1KiB time=00:00:02.02 bitrate=   2.8kbits/s speed=0.0789x elapsed=0:00:25.61    \nframe=  107 fps=4.1 q=44.0 size=       1KiB time=00:00:02.10 bitrate=   2.7kbits/s speed=0.0801x elapsed=0:00:26.20    \nframe=  109 fps=4.1 q=41.0 size=       1KiB time=00:00:02.16 bitrate=   2.6kbits/s speed=0.0805x elapsed=0:00:26.83    \nframe=  109 fps=4.0 q=41.0 size=       1KiB time=00:00:02.16 bitrate=   2.6kbits/s speed=0.0788x elapsed=0:00:27.39    \nframe=  112 fps=4.0 q=45.0 size=       1KiB time=00:00:02.22 bitrate=   2.6kbits/s speed=0.0795x elapsed=0:00:27.92    \nframe=  118 fps=4.1 q=44.0 size=       1KiB time=00:00:02.34 bitrate=   2.4kbits/s speed=0.0821x elapsed=0:00:28.49    \nframe=  122 fps=4.2 q=44.0 size=       1KiB time=00:00:02.42 bitrate=   2.4kbits/s speed=0.0831x elapsed=0:00:29.10    \nframe=  125 fps=4.2 q=40.0 size=       1KiB time=00:00:02.48 bitrate=   2.3kbits/s speed=0.0834x elapsed=0:00:29.72    \nframe=  128 fps=4.2 q=45.0 size=       1KiB time=00:00:02.54 bitrate=   2.2kbits/s speed=0.0839x elapsed=0:00:30.28    \nframe=  134 fps=4.3 q=44.0 size=       1KiB time=00:00:02.66 bitrate=   2.1kbits/s speed=0.0862x elapsed=0:00:30.87    \nframe=  139 fps=4.4 q=43.0 size=       1KiB time=00:00:02.74 bitrate=   2.1kbits/s speed=0.0872x elapsed=0:00:31.42    \nframe=  141 fps=4.4 q=40.0 size=       1KiB time=00:00:02.80 bitrate=   2.0kbits/s speed=0.0873x elapsed=0:00:32.06    \nframe=  142 fps=4.4 q=45.0 size=       1KiB time=00:00:02.82 bitrate=   2.0kbits/s speed=0.0866x elapsed=0:00:32.57    \nframe=  148 fps=4.5 q=45.0 size=       1KiB time=00:00:02.92 bitrate=   2.0kbits/s speed=0.0882x elapsed=0:00:33.10    \nframe=  153 fps=4.5 q=35.0 size=       1KiB time=00:00:03.02 bitrate=   1.9kbits/s speed=0.0896x elapsed=0:00:33.69    \nframe=  161 fps=4.7 q=23.0 size=       1KiB time=00:00:03.20 bitrate=   1.8kbits/s speed=0.0933x elapsed=0:00:34.28    \nframe=  161 fps=4.6 q=23.0 size=       1KiB time=00:00:03.20 bitrate=   1.8kbits/s speed=0.0917x elapsed=0:00:34.88    \nframe=  165 fps=4.7 q=41.0 size=       1KiB time=00:00:03.28 bitrate=   1.7kbits/s speed=0.0926x elapsed=0:00:35.43    \nframe=  169 fps=4.7 q=35.0 size=       1KiB time=00:00:03.36 bitrate=   1.7kbits/s speed=0.0933x elapsed=0:00:36.01    \nframe=  177 fps=4.8 q=23.0 size=       1KiB time=00:00:03.52 bitrate=   1.6kbits/s speed=0.0963x elapsed=0:00:36.54    \nframe=  177 fps=4.8 q=23.0 size=       1KiB time=00:00:03.52 bitrate=   1.6kbits/s speed=0.0949x elapsed=0:00:37.09    \nframe=  181 fps=4.8 q=41.0 size=       1KiB time=00:00:03.60 bitrate=   1.6kbits/s speed=0.0957x elapsed=0:00:37.63    \nframe=  187 fps=4.9 q=45.0 size=       1KiB time=00:00:03.68 bitrate=   1.6kbits/s speed=0.0963x elapsed=0:00:38.21    \nframe=  193 fps=5.0 q=24.0 size=       1KiB time=00:00:03.84 bitrate=   1.5kbits/s speed=0.099x elapsed=0:00:38.78    \nframe=  193 fps=4.9 q=24.0 size=       1KiB time=00:00:03.84 bitrate=   1.5kbits/s speed=0.0976x elapsed=0:00:39.33    \nframe=  199 fps=5.0 q=46.0 size=       1KiB time=00:00:03.92 bitrate=   1.5kbits/s speed=0.0982x elapsed=0:00:39.90    \nframe=  207 fps=5.1 q=46.0 size=       1KiB time=00:00:04.08 bitrate=   1.4kbits/s speed=0.101x elapsed=0:00:40.47    \nframe=  213 fps=5.2 q=44.0 size=       1KiB time=00:00:04.24 bitrate=   1.3kbits/s speed=0.103x elapsed=0:00:41.05    \nframe=  221 fps=5.3 q=44.0 size=       1KiB time=00:00:04.36 bitrate=   1.3kbits/s speed=0.105x elapsed=0:00:41.61    \nframe=  225 fps=5.3 q=28.0 size=       1KiB time=00:00:04.48 bitrate=   1.3kbits/s speed=0.106x elapsed=0:00:42.18    \nframe=  231 fps=5.4 q=46.0 size=       1KiB time=00:00:04.56 bitrate=   1.3kbits/s speed=0.107x elapsed=0:00:42.74    \nframe=  237 fps=5.5 q=43.0 size=       1KiB time=00:00:04.72 bitrate=   1.2kbits/s speed=0.109x elapsed=0:00:43.28    \n[out#0/matroska @ 0000017f4e63f0c0] video:1419KiB audio:0KiB subtitle:0KiB other streams:0KiB global headers:0KiB muxing overhead: 0.130735%\nframe=  250 fps=5.7 q=43.0 Lsize=    1420KiB time=00:00:04.98 bitrate=2336.5kbits/s speed=0.114x elapsed=0:00:43.71    \n",
  "seconds": 44.42812371253967,
  "probe_out": {}
}